# xmcd
#
# Track frame offsets: 
#        150
#        28748
#        45133
#        62227
#        89532
#        111390
#        121017
#        130395
#        155975
#        196517
#        215612
#        255405
#        293173
#
# Disc length: 4287 seconds
#
# Revision: 2
# Processed by: cddbd v1.5.2PL0 Copyright (c) Steve Scherf et al.
# Submitted via: ExactAudioCopy v1.0b3
#
DISCID=b910bd0d
DTITLE=Various Artist - Stereoplay 06, 2016 -Vinyl Classics, Vol. 3
DYEAR=2016
DGENRE=Other
TTITLE0=Charly Antolini - Chakto
TTITLE1=Harry Belafonte - Day 0
TTITLE2=Frank Sinatra - Angel Eyes
TTITLE3=M.Markesini feat. Klazz Brothers - Gee the Bee
TTITLE4=Sara K. feat Chris Jones - What's A Little More Rain
TTITLE5=Beach Boys - Surfin' Safari
TTITLE6=Dave Brubeck Quartet - Unsquare Dance
TTITLE7=Miles Davis - Blue In Green
TTITLE8=Jacques Loussier - J.S.Bach -Toccata and Fuge d-moll
TTITLE9=Wiener Philharmoniker -G.Solti - R.Wagner -Das Rheingold, Vors
TTITLE9=piel
TTITLE10=N.Milstein -Pittsburgh Symph. Or, -William Steinberg - P.Tsch
TTITLE10=aikowski -Violinkonzert, 3. Satz, Allegro Vivacissimo
TTITLE11=Leningrader Phil, Or. Jewgenij Mrawinskij - P.Tschaikowski -S
TTITLE11=infonie Nr.6, 3. Satz, Allegro molto Vivace
TTITLE12=Chicago Symph.Or. -F.Reiner, -Bearb. M.Ravel - M.Mussorgski -
TTITLE12=Das groﬂe Tor zu Kiev
EXTD=
EXTT0=
EXTT1=
EXTT2=
EXTT3=
EXTT4=
EXTT5=
EXTT6=
EXTT7=
EXTT8=
EXTT9=
EXTT10=
EXTT11=
EXTT12=
PLAYORDER=
